<svg id="illustration" xmlns="http://www.w3.org/2000/svg" viewBox="0 0 800 400"><defs><style>.cls-1{fill:#3c3c3b;}.cls-2{fill:#efefef;}</style></defs><title>landing-bg</title><path class="cls-1" d="M400.06,304c-.07.1,0,.16.16.22C400.18,304,400.13,303.92,400.06,304Z"/><path class="cls-2" d="M788.11,373.46l3.55.1v-5.72l-3.55.17,0-4.57-3.35-.09V351.81l-2.11-.2-.17-3.19-5.6-1.7.21-3.16,3.12.08.08-2.13,2.11-.95.49-2.66,1.95-.74-1.54-19.55s7.15-10.95,6.9-10.95-4.31-6.8-4.31-6.8l-4,4.25L777.58,293h-3.9l-2.82-4.92,2.28-3.29.24-5,4.15-.74-3.82-1.49,3.82-3-5-.22,2.85-4.35-4.64,3.08-.4-5.53-2,5.21-1.3-.11-2.76-3,1.38,5.2-2.93-.53v-3.87l-.69-.49-.29-14.13L760,252.54l0-.7,3.33-.11V247.8l-.81-1.38-2.44-.21-.24-1.15,2.68-.44v-3.19l-.9-1.85L761.6,238l-1-1.48,1.39-3.82V230l-5.62,9.63v4l1,1.51.24.94h-1l-1,1.7v4.24l1.46,1.07v4.91H759v4.95l-3,17.93v7.13l1.72,1.87v7.88l1.46,4.08-1.46,10.55v4.13h1.66l.28,2-.21,8.53h1.29l0,9.4-1.34,6.73v19.68l-2.8-.07v5.22l-3.94-.06.87,6.29,3.32,0-3.75,9.19s-1.76-16.61-16.21-26.92a38.6,38.6,0,0,0-3.93-2.44c-6.59-10.59-19-8.62-19-8.62v-8.48l-2.61,1c-.78-3.61-2.19-5.53-3.45-6.55V272H691.64v43.73h-1.11v18.35l-.64.83h-4.38V165.81l-20.62-.33V301.66a14,14,0,0,0-5.35,2.27V180.12l-15.15-19.8-18.19,19.5.23,106.37a11.92,11.92,0,0,0-7.18,1.05V86.63l-10.18-.16-.18-2.75,8,.08,2.41-1.46V80L617.31,78l-8.59-.23L607.32,0l-1.49,77.77h-9l-1.93,1.82.18,2.75,2.1,1.38h8.69v2.2h-11.7V278.77l-4.31-4.84-7,10.31v12.59h-2.19v29.78h-2.19V340h-4.69V270.49h-5V249.2h-9.5v21.29h-1.24v19.15H543.21v3.16l-3.31-.06v1.07h-1.3V279.73h-2.7V273.1H517.14v32.51h-6.86v26.15h-3.41V327h-5.79V323.9h-2.74v-4.46h-3.41v12.32h-2.32V308.85l-4.82-38.36L483,308.85v21.77l-1.65.54v-68.9h-25.1v13.9h-3.59V304h-1.11l-1.82-11.26L447.36,304H441V278.39h-4.78v5.35H422.6v-4h-6.48v5.8h-4.78v-4.46h-5.11v23.21a28.07,28.07,0,0,1-6-.06c.39,1.77-.16,14.12-.16,14.12h-3.78v15.14h-3.07V309.43l-3.5-8.59-3.51,10.31v17.18h-2.59v-63.2h-18v10.14h-2V297H357.1V266.34H345.6V241.7H331v12.16H316.84V302h-1.35v19.76l-1.33,1.74V172.41h-2.68V147.55H308.8V137h-2.68V132.9H303.2v-5.74l-2.44.64v-2.87l-1.46-.32s-.13-24.22,0-28.67c.15-5-3.85-5.48-3.85-5.48V77.77h-1.22V90.36c-4.69.22-4.92,4.94-4.92,4.94v31.86h-3.65v5.1h-2.93v5.1l-2.92.32v8.92l-2.2.32v25.17h-1.46v126.7l-2.25,2.35v2.57h-.23V311h-3.16V239.58H255.57v76.74h-.64l-7-9.17V244.93h-4.43v-5.35H231.81V203.53H221.46v74.4h-9.67V215.08H199.23V311h-3.16v-5.8l-5.15.32v-8.07h-.31v-5.19h-4.78v-4.46H184.3V245.25H167v38.94H163.6V245.25H148.06V277.5h-4.88v13.23l-1.75-1.34-2.19,3.35V298l-2.18.58v28.59h-3.44V236.55l-1.48-1.93v-10l-3-3.88V198L125,192.75v-7.12l-.64-1v-5.86l-1.12-1.26v-7.53l-1.6-.42V162l-.64-.63v-4.81l-1-1v-4.4l-1.28-3.56,0-33.93v.62l-.6,33.31h-.8v6.28L115,160.3v5.55l-2.48,3.24v7.12h-1.64v7.69l-1.16,1.52v6.18l-.88,1.15v6.48h-.94v22.25h-2.38v5.69h-2.76v96H99.4V318H97.47V270.49H66.14v60.22c-2.45.19-4.84.17-4.84-.66v9l-1.36,1.79V311H51.07v31.11H46.63V303.38H25.82v52.89H20.53V329H0v71l800-.67C800.15,378.71,788.11,373.46,788.11,373.46Z"/></svg>